<?xml version="1.0" encoding="utf-8"?>
<svg version="1.1" id="Ebene_1" xmlns="http://www.w3.org/2000/svg" xmlns:xlink="http://www.w3.org/1999/xlink" x="0px" y="0px"
	 viewBox="0 0 341 57" style="enable-background:new 0 0 341 57;" xml:space="preserve">
<style type="text/css">
	.st0{fill:#FFFFFF;}
	.st1{clip-path:url(#SVGID_2_);fill:#FFFFFF;}
	.st2{fill:#1D1D1B;}
</style>
<polygon class="st0" points="12.6,23.8 12.6,23.8 12.6,26.9 25.1,34.1 25.1,31 25.1,31 37.5,23.8 35.3,22.5 25.1,28.4 14.8,22.5 "/>
<polygon class="st0" points="12.5,31.7 12.5,31.7 12.5,34.9 25,42.1 25,38.9 25,38.9 37.4,31.7 35.2,30.5 25,36.4 14.7,30.4 "/>
<polygon class="st0" points="25,8.6 12.6,15.8 12.6,15.8 12.6,19 25.1,26.2 25.1,23 37.5,15.8 "/>
<g>
	<defs>
		<rect id="SVGID_1_" x="-0.1" width="341.1" height="55.1"/>
	</defs>
	<clipPath id="SVGID_2_">
		<use xlink:href="#SVGID_1_"  style="overflow:visible;"/>
	</clipPath>
	<path class="st1" d="M334.2,27.7h-12.6v-0.5c0-3.3,0.8-7,6.3-7c5.6,0,6.3,3.7,6.3,7V27.7z M341,32.2v-2.3c0-8.8-3.4-15.1-13.1-15.1
		c-8.7,0-13.1,4.7-13.1,14.5v1.8c0,10.2,3.7,14.2,14.2,14.2c4.8,0,8.6-0.7,10.8-1.2V39c-3.8,0.4-7.4,0.7-10.5,0.7
		c-7.1,0-7.7-2.7-7.7-7v-0.5H341z M302.9,31.1c0,7.1-2.4,8.5-6.5,8.5c-1.6,0-3.4-0.2-5.4-0.6V22.2c2.8-1.2,4.4-1.5,6.3-1.5
		c3.8,0,5.6,1.8,5.6,7.8V31.1z M309.6,31.1v-2.7c0-10-4-13.7-10.5-13.7c-2.8,0-5.9,0.8-8.5,2.6v-1.9h-6.3v39.6h6.8V44.6
		c1.5,0.4,4,0.6,5.8,0.6C304.4,45.3,309.6,41.9,309.6,31.1 M270.5,38.6c-1,0.6-3.9,1.8-6.6,1.8c-2.4,0-4.1-0.7-4.1-3.4v-1.2
		c0-3.8,2.1-4.4,7.1-4.4h3.6V38.6z M277.1,44.5V25.4c0-7.4-2.4-10.6-11.7-10.6c-4.7,0-9,1.1-10.3,1.6V21c3.2-0.4,6.2-0.6,9.1-0.6
		c5.2,0,6,0.8,6,4.9v1.8h-3.5c-8.1,0-13.7,1-13.7,8.8V37c0,5.6,3.1,8.3,8.5,8.3c4.1,0,7.4-1.4,9.2-2.7v1.9H277.1z M248.8,44.2v-5.2
		c-3.7,0.3-6.2,0.5-7.8,0.5c-4.2,0-6.6-1.4-6.6-7.7v-3.7c0-6.3,2.4-7.6,6.6-7.6c1.6,0,4.1,0.2,7.8,0.5v-5.2c-1.3-0.4-4.5-1.1-9-1.1
		c-8.3,0-12.2,4.5-12.2,13.4v3.7c0,8.7,3.9,13.4,12.2,13.4C244.2,45.3,247.4,44.6,248.8,44.2 M223,36.5c-0.1-4.8-2.2-6.8-8.5-9.3
		l-2.3-0.9c-3.6-1.4-4.6-1.9-4.6-3.8c0-2.1,1.5-2.4,5-2.4c2.5,0,5.7,0.2,9,0.5v-4.7c-1.4-0.5-5.8-1.1-9.1-1.1
		c-7.7,0-11.6,2.1-11.6,7.9c0,4.5,2.5,7,8,9.1l2.2,0.9c4.3,1.7,5.2,2.2,5.2,4.2c0,2.1-1.1,3-5.4,3c-3.7,0-8.1-0.6-9.6-0.7v4.8
		c1.3,0.4,5.9,1.1,9.9,1.1C219.3,45.3,223,42,223,36.5 M197.9,44.5l-11.5-15.1l11.2-13.9h-7.8l-10.3,12.9v-24h-6.8v40h6.8V30.8
		l10.3,13.8H197.9z M167,44.2v-5.2c-3.7,0.3-6.2,0.5-7.8,0.5c-4.2,0-6.6-1.4-6.6-7.7v-3.7c0-6.3,2.4-7.6,6.6-7.6
		c1.6,0,4.1,0.2,7.8,0.5v-5.2c-1.3-0.4-4.5-1.1-9-1.1c-8.3,0-12.2,4.5-12.2,13.4v3.7c0,8.7,3.9,13.4,12.2,13.4
		C162.4,45.3,165.6,44.6,167,44.2 M133.8,31.8c0,5.6-1.9,7.7-6.3,7.7c-4.4,0-6.3-2.1-6.3-7.7v-3.6c0-5.6,2-7.6,6.3-7.6
		c4.4,0,6.3,2.1,6.3,7.6V31.8z M140.5,31.8v-3.6c0-9.1-4.6-13.4-13.1-13.4c-8.5,0-13.1,4.3-13.1,13.4v3.6c0,9.2,4.6,13.5,13.1,13.5
		C135.9,45.3,140.5,41,140.5,31.8 M107.8,4.5H101v40h6.8V4.5z M87.6,31.7c0,6.1-2.1,7.8-6.8,7.8c-2.1,0-3.9-0.2-5-0.2V21.6
		c1.8-0.9,4.7-1.1,6-1.1c4.3,0,5.8,1.8,5.8,7.1V31.7z M94.4,31.7v-4c0-8.8-3.7-12.9-11.7-12.9c-2.2,0-4.7,0.4-6.8,1.4V4.5H69v40
		c5.2,0.6,7.8,0.8,11.6,0.8C89.7,45.3,94.4,41.4,94.4,31.7"/>
	<path class="st1" d="M49.9,25c0,13.8-11.2,25-25,25s-25-11.2-25-25s11.2-25,25-25S49.9,11.2,49.9,25"/>
</g>
<polygon class="st2" points="12.5,23.8 12.5,23.8 12.5,26.9 25,34.1 25,31 25,31 37.4,23.8 35.2,22.5 25,28.4 14.7,22.5 "/>
<polygon class="st2" points="12.4,31.7 12.4,31.7 12.4,34.9 24.9,42.1 24.9,38.9 24.9,38.9 37.3,31.7 35.1,30.5 24.9,36.4 
	14.6,30.4 "/>
<polygon class="st2" points="24.9,8.6 12.5,15.8 12.5,15.8 12.5,19 25,26.2 25,23 37.4,15.8 "/>
</svg>
